<?xml version="1.0" encoding="UTF-8" standalone="no"?>
<!-- Created with Inkscape (http://www.inkscape.org/) -->

<svg
   width="386.18597mm"
   height="93.537964mm"
   viewBox="0 0 386.18597 93.537964"
   version="1.1"
   id="svg5"
   inkscape:version="1.1.2 (b8e25be8, 2022-02-05)"
   sodipodi:docname="logo-footer.svg"
   xmlns:inkscape="http://www.inkscape.org/namespaces/inkscape"
   xmlns:sodipodi="http://sodipodi.sourceforge.net/DTD/sodipodi-0.dtd"
   xmlns="http://www.w3.org/2000/svg"
   xmlns:svg="http://www.w3.org/2000/svg">
  <sodipodi:namedview
     id="namedview7"
     pagecolor="#ffffff"
     bordercolor="#666666"
     borderopacity="1.0"
     inkscape:pageshadow="2"
     inkscape:pageopacity="0.0"
     inkscape:pagecheckerboard="0"
     inkscape:document-units="mm"
     showgrid="false"
     inkscape:zoom="0.48369398"
     inkscape:cx="635.73254"
     inkscape:cy="136.44991"
     inkscape:window-width="1728"
     inkscape:window-height="966"
     inkscape:window-x="0"
     inkscape:window-y="38"
     inkscape:window-maximized="1"
     inkscape:current-layer="layer1"
     fit-margin-top="0"
     fit-margin-left="0"
     fit-margin-right="0"
     fit-margin-bottom="0" />
  <defs
     id="defs2" />
  <g
     inkscape:label="Layer 1"
     inkscape:groupmode="layer"
     id="layer1"
     transform="translate(-13.010538,-30.509262)">
    <g
       id="g2162"
       transform="matrix(0.62604696,0,0,0.62604696,9.5700823,15.295566)">
      <rect
         style="fill:none;fill-rule:evenodd;stroke:#ac0000;stroke-width:2.64583;stroke-miterlimit:4;stroke-dasharray:none;stroke-opacity:1"
         id="rect455"
         width="87.571625"
         height="61.961056"
         x="26.914583"
         y="73.527115"
         ry="8.2614746" />
      <g
         id="g153"
         transform="matrix(0.26458333,0,0,0.26458333,2.4891986,23.969037)">
        <g
           id="g49">
	<path
   style="fill:#242424"
   d="m 105.808,511.5 c -1.132,0 -2.28,-0.244 -3.372,-0.752 -4.004,-1.868 -5.74,-6.624 -3.876,-10.628 l 78,-167.5 c 1.864,-4.004 6.624,-5.752 10.628,-3.88 4.004,1.868 5.74,6.624 3.876,10.628 l -78,167.5 c -1.356,2.92 -4.244,4.632 -7.256,4.632 z"
   id="path35" />

	<path
   style="fill:#242424"
   d="m 407.816,511.5 c -2.988,0 -5.852,-1.68 -7.224,-4.556 l -80,-167.5 c -1.908,-3.988 -0.22,-8.76 3.772,-10.672 3.984,-1.9 8.756,-0.212 10.664,3.772 l 80,167.5 c 1.908,3.988 0.22,8.76 -3.772,10.668 -1.108,0.54 -2.28,0.788 -3.44,0.788 z"
   id="path37" />

	<path
   style="fill:#242424"
   d="m 331.812,360 h -152 c -4.416,0 -8,-3.584 -8,-8 0,-4.416 3.584,-8 8,-8 h 152 c 4.416,0 8,3.584 8,8 0,4.416 -3.584,8 -8,8 z"
   id="path39" />

	<path
   style="fill:#242424"
   d="m 347.812,392 h -184 c -4.416,0 -8,-3.584 -8,-8 0,-4.416 3.584,-8 8,-8 h 184 c 4.416,0 8,3.584 8,8 0,4.416 -3.584,8 -8,8 z"
   id="path41" />

	<path
   style="fill:#242424"
   d="m 363.812,424 h -212 c -4.416,0 -8,-3.584 -8,-8 0,-4.416 3.584,-8 8,-8 h 212 c 4.416,0 8,3.584 8,8 0,4.416 -3.584,8 -8,8 z"
   id="path43" />

	<path
   style="fill:#242424"
   d="m 375.812,456 h -244 c -4.416,0 -8,-3.584 -8,-8 0,-4.416 3.584,-8 8,-8 h 244 c 4.416,0 8,3.584 8,8 0,4.416 -3.584,8 -8,8 z"
   id="path45" />

	<path
   style="fill:#242424"
   d="m 391.812,492 h -268 c -4.416,0 -8,-3.584 -8,-8 0,-4.416 3.584,-8 8,-8 h 268 c 4.416,0 8,3.584 8,8 0,4.416 -3.584,8 -8,8 z"
   id="path47" />

</g>
        <path
           id="SVGCleanerId_0"
           style="fill:#ffd464"
           d="m 147.812,196 v 80 c 0,56 64,92 108,92 44,0 108,-36 108,-92 v -80 z" />
        <g
           id="g53">
	<path
   id="SVGCleanerId_0_1_"
   style="fill:#dc8700;fill-opacity:1"
   d="m 147.812,196 v 80 c 0,56 64,92 108,92 44,0 108,-36 108,-92 v -80 z" />

</g>
        <g
           id="g59">
	<path
   style="fill:#263740"
   d="m 315.812,80 c -1.024,0 -2.048,-0.392 -2.828,-1.172 L 306.156,72 H 205.468 l -6.828,6.828 c -1.564,1.564 -4.092,1.564 -5.656,0 -1.564,-1.564 -1.564,-4.092 0,-5.656 L 202.156,64 h 107.312 l 9.172,9.172 c 1.564,1.564 1.564,4.092 0,5.656 -0.78,0.78 -1.804,1.172 -2.828,1.172 z"
   id="path55" />

	<path
   style="fill:#263740"
   d="m 255.812,96 c -2.208,0 -4,-1.792 -4,-4 V 68 c 0,-2.208 1.792,-4 4,-4 2.208,0 4,1.792 4,4 v 24 c 0,2.208 -1.792,4 -4,4 z"
   id="path57" />

</g>
        <path
           style="fill:#f2c95f"
           d="m 351.812,124 v 152 c 0,53.504 -58.416,88.728 -102,91.756 2.032,0.14 4.04,0.244 6,0.244 44,0 108,-36 108,-92 V 124 Z"
           id="path61" />
        <path
           style="fill:#b03740;fill-opacity:1;stroke:none;stroke-opacity:1"
           d="m 332.212,92 h -76.4 -76.396 c -17.352,0 -31.604,14.328 -31.604,32 v 75.16 c 14.952,42.56 69.028,68.84 108,68.84 38.972,0 93.048,-26.28 108,-68.84 V 124 c 0,-17.672 -14.248,-32 -31.6,-32 z"
           id="path63" />
        <path
           style="fill:#f5f5f5"
           d="m 255.812,252 c -33.476,0 -78.684,-22.772 -92,-55.748 V 124 c 0,-8.824 7,-16 15.604,-16 h 152.788 c 8.604,0 15.604,7.176 15.604,16 v 72.252 C 334.496,229.228 289.288,252 255.812,252 Z"
           id="path65" />
        <path
           style="fill:#263740"
           d="m 331.812,128 c 0,6.6 -5.4,12 -12,12 h -128 c -6.6,0 -12,-5.4 -12,-12 v 0 c 0,-6.6 5.4,-12 12,-12 h 128 c 6.604,0 12,5.4 12,12 z"
           id="path67" />
        <rect
           x="251.812"
           y="88"
           style="fill:#1e2c33"
           width="8"
           height="4"
           id="rect69" />
        <path
           style="fill:#263740"
           d="m 227.812,284 h -48 c -7.412,0 -13.632,-5.132 -15.428,-12 -0.336,1.288 -0.572,22.608 -0.572,24 0,8.8 7.2,16 16,16 h 48 c 4.4,0 8,-3.6 8,-8 v -12 c 0,-4.4 -3.6,-8 -8,-8 z"
           id="path71" />
        <path
           style="fill:#f5f5f5"
           d="m 179.812,304 c -4.412,0 -8,-3.584 -8,-8 0,-0.712 0.02,-2.764 0.056,-5.364 2.5,0.888 5.18,1.364 7.944,1.364 h 48 v 12 z"
           id="path73" />
        <path
           style="fill:#263740"
           d="m 283.812,284 h 48 c 7.416,0 13.632,-5.132 15.428,-12 0.336,1.288 0.572,22.608 0.572,24 0,8.8 -7.2,16 -16,16 h -48 c -4.4,0 -8,-3.6 -8,-8 v -12 c 0,-4.4 3.604,-8 8,-8 z"
           id="path75" />
        <path
           style="fill:#f5f5f5"
           d="m 331.812,304 c 4.416,0 8,-3.584 8,-8 0,-0.712 -0.02,-2.764 -0.056,-5.364 -2.5,0.884 -5.176,1.364 -7.944,1.364 h -48 v 12 z"
           id="path77" />
        <g
           id="g79">
</g>
        <g
           id="g81">
</g>
        <g
           id="g83">
</g>
        <g
           id="g85">
</g>
        <g
           id="g87">
</g>
        <g
           id="g89">
</g>
        <g
           id="g91">
</g>
        <g
           id="g93">
</g>
        <g
           id="g95">
</g>
        <g
           id="g97">
</g>
        <g
           id="g99">
</g>
        <g
           id="g101">
</g>
        <g
           id="g103">
</g>
        <g
           id="g105">
</g>
        <g
           id="g107">
</g>
      </g>
    </g>
    <text
       xml:space="preserve"
       style="font-style:normal;font-variant:normal;font-weight:bold;font-stretch:normal;font-size:22.5704px;line-height:1.25;font-family:'Gill Sans';-inkscape-font-specification:'Gill Sans, Bold';font-variant-ligatures:normal;font-variant-caps:normal;font-variant-numeric:normal;font-variant-east-asian:normal;fill:#000000;fill-opacity:1;stroke:none;stroke-width:0.56426"
       x="90.609749"
       y="66.257156"
       id="text2584"><tspan
         sodipodi:role="line"
         id="tspan2582"
         style="font-style:normal;font-variant:normal;font-weight:bold;font-stretch:normal;font-size:22.5704px;font-family:'Gill Sans';-inkscape-font-specification:'Gill Sans, Bold';font-variant-ligatures:normal;font-variant-caps:normal;font-variant-numeric:normal;font-variant-east-asian:normal;stroke-width:0.56426;fill:#000000;fill-opacity:1"
         x="90.609749"
         y="66.257156">Train Information Portal</tspan></text>
    <text
       xml:space="preserve"
       style="font-style:normal;font-variant:normal;font-weight:300;font-stretch:normal;font-size:17.0698px;line-height:1.25;font-family:'Gill Sans';-inkscape-font-specification:'Gill Sans, Light';font-variant-ligatures:normal;font-variant-caps:normal;font-variant-numeric:normal;font-variant-east-asian:normal;fill:#000000;fill-opacity:1;stroke:none;stroke-width:0.426745"
       x="95.700653"
       y="89.267494"
       id="text3149"><tspan
         sodipodi:role="line"
         style="font-style:normal;font-variant:normal;font-weight:300;font-stretch:normal;font-size:17.0698px;font-family:'Gill Sans';-inkscape-font-specification:'Gill Sans, Light';font-variant-ligatures:normal;font-variant-caps:normal;font-variant-numeric:normal;font-variant-east-asian:normal;stroke-width:0.426745;fill:#000000;fill-opacity:1"
         x="95.700653"
         y="89.267494"
         id="tspan3151">All information you need under one roof</tspan></text>
    <rect
       style="fill:#4baae8;fill-opacity:1;stroke:none;stroke-width:2.64583;stroke-miterlimit:4;stroke-dasharray:none;stroke-opacity:1"
       id="rect6845"
       width="45.948475"
       height="35.008362"
       x="50.206924"
       y="-76.156837" />
  </g>
</svg>
